<svg width="97" height="96" viewBox="0 0 97 96" fill="none" xmlns="http://www.w3.org/2000/svg">
  <path d="M95.328 26.944L69.552 1.172C68.802 0.421803 67.7848 0.00022655 66.724 0L30.276 0C29.2152 0.00022655 28.198 0.421803 27.448 1.172L1.672 26.944C0.921803 27.694 0.500227 28.7112 0.5 29.772L0.5 66.228C0.500227 67.2888 0.921803 68.306 1.672 69.056L27.448 94.828C28.198 95.5782 29.2152 95.9998 30.276 96H66.724C67.7848 95.9998 68.802 95.5782 69.552 94.828L95.328 69.056C96.0782 68.306 96.4998 67.2888 96.5 66.228V29.772C96.4998 28.7112 96.0782 27.694 95.328 26.944ZM55.08 20L52.5 56H44.5L42.068 20H55.08ZM48.5 80C46.9178 80 45.371 79.5308 44.0554 78.6518C42.7398 77.7727 41.7145 76.5233 41.109 75.0615C40.5035 73.5997 40.345 71.9911 40.6537 70.4393C40.9624 68.8874 41.7243 67.462 42.8431 66.3431C43.962 65.2243 45.3874 64.4624 46.9393 64.1537C48.4911 63.845 50.0997 64.0035 51.5615 64.609C53.0233 65.2145 54.2727 66.2398 55.1518 67.5554C56.0308 68.871 56.5 70.4177 56.5 72C56.5 74.1217 55.6571 76.1566 54.1569 77.6569C52.6566 79.1571 50.6217 80 48.5 80Z" fill="#E65050"/>
</svg> 