<svg width="96" height="96" viewBox="0 0 96 96" fill="none" xmlns="http://www.w3.org/2000/svg">
<rect width="96" height="96" rx="48" fill="#DCDCDC"/>
<g clip-path="url(#clip0)">
<path fill-rule="evenodd" clip-rule="evenodd" d="M47.272 35.5563C47.272 35.5564 47.2721 35.5563 47.272 35.5563L38.9658 43.8625C39.8783 44.3973 40.9243 44.6862 42 44.6862C43.5909 44.6862 45.1166 44.0544 46.2418 42.9297C46.2419 42.9296 46.2417 42.9298 46.2418 42.9297L50.5858 38.5857C51.3668 37.8047 52.6332 37.8047 53.4142 38.5857C54.1953 39.3668 54.1953 40.6331 53.4142 41.4141L49.0702 45.7581C47.1949 47.6329 44.6516 48.6862 42 48.6862C39.3484 48.6862 36.8053 47.6331 34.93 45.7584L34.5858 45.4141C34.2107 45.0391 34 44.5304 34 43.9999C34 43.4695 34.2107 42.9608 34.5858 42.5857L44.4438 32.7277C47.4713 29.701 51.5771 28.0006 55.858 28.0006C60.1389 28.0006 64.2446 29.7009 67.272 32.7275C69.8143 35.27 71.4356 38.5885 71.8784 42.1566C72.3213 45.7247 71.5606 49.3386 69.7171 52.4254C69.1507 53.3737 67.9228 53.6834 66.9745 53.117C66.0262 52.5506 65.7166 51.3228 66.2829 50.3744C67.6698 48.0522 68.242 45.3336 67.9089 42.6493C67.5757 39.9651 66.3562 37.4688 64.4437 35.5561C62.1664 33.2795 59.0781 32.0006 55.858 32.0006C52.6379 32.0006 49.5494 33.2797 47.272 35.5563Z" fill="white"/>
<path fill-rule="evenodd" clip-rule="evenodd" d="M41.9999 29.9825C42.0096 31.087 41.122 31.9903 40.0175 31.9999C36.8403 32.0277 33.8017 33.3044 31.5582 35.5542L30.142 34.142L31.5564 35.556C29.2796 37.8334 28.0006 40.9218 28.0006 44.142C28.0006 47.3621 29.2796 50.4505 31.5562 52.7278C31.5563 52.7279 31.5561 52.7277 31.5562 52.7278L42.9282 64.0998C43.8568 65.0285 44.9594 65.7654 46.1728 66.2681C47.3861 66.7707 48.6866 67.0294 50 67.0294C51.3134 67.0294 52.6138 66.7707 53.8272 66.2681C55.0406 65.7654 56.143 65.0287 57.0717 64.0999L60.3436 60.828C60.3436 60.8279 60.3435 60.8281 60.3436 60.828C61.0933 60.0779 61.5147 59.0606 61.5147 58C61.5147 56.9394 61.0935 55.9223 60.3438 55.1722C60.3437 55.1721 60.3438 55.1723 60.3438 55.1722L53.1178 47.9462C52.3367 47.1652 52.3367 45.8988 53.1178 45.1178C53.8988 44.3367 55.1652 44.3367 55.9462 45.1178L63.1722 52.3438C64.672 53.844 65.5147 55.8787 65.5147 58C65.5147 60.1213 64.6722 62.1558 63.1724 63.656L59.9003 66.9281C59.9003 66.9281 59.9004 66.9281 59.9003 66.9281C58.6003 68.2283 57.0568 69.2598 55.3581 69.9635C53.6594 70.6672 51.8387 71.0294 50 71.0294C48.1613 71.0294 46.3406 70.6672 44.6419 69.9635C42.9432 69.2598 41.3998 68.2284 40.0998 66.9282C40.0997 66.9282 40.0998 66.9283 40.0998 66.9282L28.7278 55.5562C25.7011 52.5288 24.0006 48.4229 24.0006 44.142C24.0006 39.8611 25.7009 35.7554 28.7276 32.728C31.7128 29.7353 35.7556 28.037 39.9825 28.0001C41.087 27.9904 41.9903 28.878 41.9999 29.9825Z" fill="white"/>
<path fill-rule="evenodd" clip-rule="evenodd" d="M51.5856 54.024C52.3666 53.2428 53.6329 53.2426 54.414 54.0236L62.196 61.8036C62.9772 62.5845 62.9773 63.8509 62.1964 64.632C61.4154 65.4132 60.1491 65.4133 59.368 64.6324L51.586 56.8524C50.8048 56.0714 50.8047 54.8051 51.5856 54.024Z" fill="white"/>
<path fill-rule="evenodd" clip-rule="evenodd" d="M46.3518 59.2557C47.1328 58.4747 48.3992 58.4747 49.1802 59.2557L56.4402 66.5157C57.2213 67.2968 57.2213 68.5631 56.4402 69.3442C55.6592 70.1252 54.3928 70.1252 53.6118 69.3442L46.3518 62.0842C45.5707 61.3031 45.5707 60.0368 46.3518 59.2557Z" fill="white"/>
</g>
<defs>
<clipPath id="clip0">
<rect width="48" height="48" fill="white" transform="translate(24 24)"/>
</clipPath>
</defs>
</svg>
