<svg width="192" height="42" viewBox="0 0 192 42" fill="none" xmlns="http://www.w3.org/2000/svg">
<path fill-rule="evenodd" clip-rule="evenodd" d="M16.8054 0L33.3215 9.78117V28.9924L16.7742 38.4L6.48281 32.1102V13.6526L16.8054 7.34375L27.128 13.6526V25.1353L16.7968 31.0284L12.6764 28.63V17.4488L17.1495 14.6449L20.4183 16.7478L16.1172 19.5517V26.5961L16.814 27.0016L23.6871 23.081V15.6371L16.8054 11.4312L9.92368 15.6963V30.1257L16.8366 34.3507L29.8807 26.9347V11.7977L16.8054 4.05424L3.73013 11.7977V30.417L0.289267 28.314V9.78117L16.8054 0Z" fill="#E3000F"/>
<path d="M44.3323 9.81732V4.53906H52.0013V9.81732H44.3323ZM44.3323 32.8852V12.2414H52.0013V32.8852H44.3323Z" fill="#263238"/>
<path d="M71.6943 32.8852L71.0392 29.9529C69.549 32.2206 67.3909 33.3544 64.5648 33.3544C61.8158 33.3544 59.6962 32.4421 58.2061 30.6176C56.716 28.793 55.9709 26.0952 55.9709 22.5242C55.9709 18.9793 56.716 16.3076 58.2061 14.5091C59.6962 12.6845 61.8158 11.7722 64.5648 11.7722C66.9028 11.7722 68.804 12.5672 70.2684 14.1572V4.53906H77.9374V32.8852H71.6943ZM66.9542 17.5197C64.7447 17.5197 63.6399 18.862 63.6399 21.5468V23.619C63.6399 26.2777 64.7447 27.607 66.9542 27.607C68.0846 27.607 68.9324 27.203 69.4977 26.3949C70.0629 25.5869 70.3455 24.5313 70.3455 23.228V21.9378C70.3455 20.6345 70.0629 19.5788 69.4977 18.7708C68.9324 17.9367 68.0846 17.5197 66.9542 17.5197Z" fill="#263238"/>
<path d="M93.1209 11.7722C96.8462 11.7722 99.6852 12.6585 101.638 14.4309C103.616 16.2034 104.605 18.9142 104.605 22.5633V23.8927H89.3442C89.3442 25.3784 89.6654 26.4992 90.3077 27.2551C90.9757 28.011 92.0162 28.389 93.4292 28.389C94.7138 28.389 95.6516 28.1153 96.2425 27.5679C96.8591 27.0205 97.1674 26.2907 97.1674 25.3784H104.605C104.605 27.8807 103.667 29.8356 101.792 31.2431C99.9164 32.6507 97.1802 33.3544 93.5834 33.3544C89.8067 33.3544 86.8778 32.4682 84.7968 30.6957C82.7158 28.8972 81.6752 26.1864 81.6752 22.5633C81.6752 19.0184 82.6901 16.3337 84.7197 14.5091C86.7494 12.6845 89.5498 11.7722 93.1209 11.7722ZM93.4292 16.7377C91.0142 16.7377 89.6654 17.8976 89.3828 20.2174H96.8591C96.8591 19.1488 96.5508 18.3016 95.9342 17.6761C95.3433 17.0505 94.5083 16.7377 93.4292 16.7377Z" fill="#263238"/>
<path d="M122.332 11.7722C124.696 11.7722 126.469 12.4369 127.65 13.7662C128.832 15.0956 129.423 17.0114 129.423 19.5137V32.8852H121.754V20.452C121.754 19.5658 121.523 18.862 121.06 18.3407C120.624 17.7933 119.994 17.5197 119.172 17.5197C118.221 17.5197 117.451 17.8324 116.86 18.458C116.269 19.0836 115.973 19.8525 115.973 20.7648V32.8852H108.304V12.2414H114.586L115.087 15.3693C115.884 14.2745 116.924 13.4013 118.209 12.7497C119.519 12.098 120.893 11.7722 122.332 11.7722Z" fill="#263238"/>
<path d="M147.574 12.2414V17.5197H143.258V25.3784C143.258 26.3168 143.412 27.0075 143.72 27.4506C144.029 27.8676 144.594 28.0762 145.416 28.0762H147.574V32.6507C146.957 32.8592 146.161 33.0286 145.185 33.1589C144.208 33.2893 143.361 33.3544 142.641 33.3544C140.38 33.3544 138.633 32.9374 137.4 32.1033C136.193 31.2692 135.589 29.8486 135.589 27.8416V17.5197H132.737V12.2414H135.897L137.554 5.9857H143.258V12.2414H147.574Z" fill="#263238"/>
<path d="M163.503 11.7331C164.094 11.7331 164.621 11.8113 165.083 11.9677C165.545 12.098 165.777 12.1762 165.777 12.2023V18.7317H163.31C161.717 18.7317 160.561 19.1488 159.842 19.9828C159.148 20.8169 158.801 22.0551 158.801 23.6972V32.8852H151.132V12.2414H157.414L157.915 15.3693C158.377 14.1702 159.11 13.271 160.112 12.6715C161.114 12.0459 162.244 11.7331 163.503 11.7331Z" fill="#263238"/>
<path d="M184.466 32.2597C183.412 35.1529 182.115 37.3424 180.573 38.8282C179.058 40.34 176.925 41.0959 174.176 41.0959C172.506 41.0959 171.029 40.8613 169.744 40.3921V35.7394H172.827C174.754 35.7394 175.897 34.788 176.257 32.8852L168.164 12.2414H176.411L180.304 25.9649H180.573L184.157 12.2414H191.711L184.466 32.2597Z" fill="#263238"/>
</svg>
